<mxfile host="app.diagrams.net" modified="2022-03-21T11:03:45.856Z" agent="5.0 (Windows NT 10.0; Win64; x64) AppleWebKit/537.36 (KHTML, like Gecko) Chrome/99.0.4844.51 Safari/537.36" etag="KskkNtmK6FfbppdnQVtw" version="17.1.3" type="github">
  <diagram id="a45cf8ec-cd66-6f27-3ac3-be6e809c9e4a" name="Page-1">
    <mxGraphModel dx="-21" dy="428" grid="1" gridSize="10" guides="1" tooltips="1" connect="1" arrows="1" fold="1" page="1" pageScale="1" pageWidth="827" pageHeight="1169" background="none" math="0" shadow="0">
      <root>
        <mxCell id="0" />
        <mxCell id="1" parent="0" />
        <mxCell id="IW6tXgYRj2aieJ-98kWR-184" value="" style="shape=ext;double=1;rounded=1;whiteSpace=wrap;html=1;dashed=1;shadow=0;glass=0;fillColor=none;" vertex="1" parent="1">
          <mxGeometry x="840" y="630" width="260" height="240" as="geometry" />
        </mxCell>
        <mxCell id="IW6tXgYRj2aieJ-98kWR-180" style="edgeStyle=orthogonalEdgeStyle;rounded=0;orthogonalLoop=1;jettySize=auto;html=1;endArrow=none;endFill=0;exitX=0.5;exitY=1;exitDx=0;exitDy=0;" edge="1" parent="1" source="IW6tXgYRj2aieJ-98kWR-172" target="IW6tXgYRj2aieJ-98kWR-203">
          <mxGeometry relative="1" as="geometry">
            <mxPoint x="1516.3999999999999" y="703.2" as="targetPoint" />
            <Array as="points">
              <mxPoint x="1270" y="630" />
              <mxPoint x="1567" y="630" />
            </Array>
          </mxGeometry>
        </mxCell>
        <mxCell id="IW6tXgYRj2aieJ-98kWR-182" style="edgeStyle=orthogonalEdgeStyle;rounded=0;orthogonalLoop=1;jettySize=auto;html=1;endArrow=none;endFill=0;exitX=0.5;exitY=1;exitDx=0;exitDy=0;" edge="1" parent="1" source="IW6tXgYRj2aieJ-98kWR-172" target="IW6tXgYRj2aieJ-98kWR-173">
          <mxGeometry relative="1" as="geometry">
            <Array as="points">
              <mxPoint x="1270" y="660" />
              <mxPoint x="1426" y="660" />
            </Array>
          </mxGeometry>
        </mxCell>
        <mxCell id="IW6tXgYRj2aieJ-98kWR-198" style="edgeStyle=orthogonalEdgeStyle;rounded=0;orthogonalLoop=1;jettySize=auto;html=1;endArrow=none;endFill=0;" edge="1" parent="1" source="IW6tXgYRj2aieJ-98kWR-172" target="IW6tXgYRj2aieJ-98kWR-190">
          <mxGeometry relative="1" as="geometry" />
        </mxCell>
        <mxCell id="IW6tXgYRj2aieJ-98kWR-172" value="" style="image;html=1;image=img/lib/clip_art/networking/Wireless_Router_N_128x128.png" vertex="1" parent="1">
          <mxGeometry x="1230" y="497" width="80" height="80" as="geometry" />
        </mxCell>
        <mxCell id="IW6tXgYRj2aieJ-98kWR-173" value="" style="verticalLabelPosition=bottom;sketch=0;aspect=fixed;html=1;verticalAlign=top;strokeColor=none;align=center;outlineConnect=0;shape=mxgraph.citrix.laptop_2;" vertex="1" parent="1">
          <mxGeometry x="1397" y="696.5" width="58.34" height="43.5" as="geometry" />
        </mxCell>
        <mxCell id="IW6tXgYRj2aieJ-98kWR-175" value="" style="points=[];aspect=fixed;html=1;align=center;shadow=0;dashed=0;image;image=img/lib/allied_telesis/computer_and_terminals/Smartphone.svg;" vertex="1" parent="1">
          <mxGeometry x="890" y="660" width="19.8" height="43.199999999999996" as="geometry" />
        </mxCell>
        <mxCell id="IW6tXgYRj2aieJ-98kWR-176" value="" style="points=[];aspect=fixed;html=1;align=center;shadow=0;dashed=0;image;image=img/lib/allied_telesis/computer_and_terminals/Smartphone.svg;" vertex="1" parent="1">
          <mxGeometry x="1010.0999999999999" y="660" width="19.8" height="43.199999999999996" as="geometry" />
        </mxCell>
        <mxCell id="IW6tXgYRj2aieJ-98kWR-177" value="" style="points=[];aspect=fixed;html=1;align=center;shadow=0;dashed=0;image;image=img/lib/allied_telesis/computer_and_terminals/Smartphone.svg;" vertex="1" parent="1">
          <mxGeometry x="1010.0999999999999" y="770" width="19.8" height="43.199999999999996" as="geometry" />
        </mxCell>
        <mxCell id="IW6tXgYRj2aieJ-98kWR-178" value="" style="verticalLabelPosition=bottom;sketch=0;aspect=fixed;html=1;verticalAlign=top;strokeColor=none;align=center;outlineConnect=0;shape=mxgraph.citrix.tablet_2;" vertex="1" parent="1">
          <mxGeometry x="890" y="730" width="82" height="86" as="geometry" />
        </mxCell>
        <mxCell id="IW6tXgYRj2aieJ-98kWR-181" style="edgeStyle=orthogonalEdgeStyle;rounded=0;orthogonalLoop=1;jettySize=auto;html=1;endArrow=none;endFill=0;" edge="1" parent="1" source="IW6tXgYRj2aieJ-98kWR-179" target="IW6tXgYRj2aieJ-98kWR-172">
          <mxGeometry relative="1" as="geometry" />
        </mxCell>
        <mxCell id="IW6tXgYRj2aieJ-98kWR-179" value="" style="fontColor=#0066CC;verticalAlign=top;verticalLabelPosition=bottom;labelPosition=center;align=center;html=1;outlineConnect=0;fillColor=#CCCCCC;strokeColor=#6881B3;gradientColor=none;gradientDirection=north;strokeWidth=2;shape=mxgraph.networks.storage;" vertex="1" parent="1">
          <mxGeometry x="1234" y="756.5" width="70" height="63.5" as="geometry" />
        </mxCell>
        <mxCell id="IW6tXgYRj2aieJ-98kWR-186" value="&lt;span style=&quot;color: rgb(153 , 153 , 153) ; font-family: &amp;#34;helvetica&amp;#34; , &amp;#34;arial&amp;#34; , sans-serif ; font-size: 14px ; background-color: rgb(255 , 255 , 255)&quot;&gt;10.8.140.99&lt;/span&gt;" style="text;html=1;strokeColor=none;fillColor=none;align=center;verticalAlign=middle;whiteSpace=wrap;rounded=0;" vertex="1" parent="1">
          <mxGeometry x="1190" y="471" width="60" height="30" as="geometry" />
        </mxCell>
        <mxCell id="IW6tXgYRj2aieJ-98kWR-188" value="&lt;span style=&quot;color: rgb(153 , 153 , 153) ; font-family: &amp;#34;helvetica&amp;#34; , &amp;#34;arial&amp;#34; , sans-serif ; font-size: 14px ; background-color: rgb(255 , 255 , 255)&quot;&gt;192.168.0.1&lt;br&gt;&lt;/span&gt;" style="text;html=1;strokeColor=none;fillColor=none;align=center;verticalAlign=middle;whiteSpace=wrap;rounded=0;" vertex="1" parent="1">
          <mxGeometry x="1280" y="570" width="60" height="30" as="geometry" />
        </mxCell>
        <mxCell id="IW6tXgYRj2aieJ-98kWR-189" value="&lt;span style=&quot;color: rgb(153 , 153 , 153) ; font-family: &amp;#34;helvetica&amp;#34; , &amp;#34;arial&amp;#34; , sans-serif ; font-size: 14px ; background-color: rgb(255 , 255 , 255)&quot;&gt;192.168.0.141&lt;br&gt;&lt;/span&gt;" style="text;html=1;strokeColor=none;fillColor=none;align=center;verticalAlign=middle;whiteSpace=wrap;rounded=0;" vertex="1" parent="1">
          <mxGeometry x="1286" y="726.5" width="60" height="30" as="geometry" />
        </mxCell>
        <mxCell id="IW6tXgYRj2aieJ-98kWR-201" style="edgeStyle=orthogonalEdgeStyle;rounded=0;orthogonalLoop=1;jettySize=auto;html=1;endArrow=none;endFill=0;" edge="1" parent="1" source="IW6tXgYRj2aieJ-98kWR-190" target="IW6tXgYRj2aieJ-98kWR-199">
          <mxGeometry relative="1" as="geometry" />
        </mxCell>
        <mxCell id="IW6tXgYRj2aieJ-98kWR-190" value="" style="image;html=1;image=img/lib/clip_art/networking/Switch_128x128.png" vertex="1" parent="1">
          <mxGeometry x="1230" y="313" width="80" height="80" as="geometry" />
        </mxCell>
        <mxCell id="IW6tXgYRj2aieJ-98kWR-191" value="" style="shape=image;html=1;verticalAlign=top;verticalLabelPosition=bottom;labelBackgroundColor=#ffffff;imageAspect=0;aspect=fixed;image=https://cdn2.iconfinder.com/data/icons/harry-potter-outline-collection-1/60/12_-_Harry_Potter_-_Outline_-_Harrys_Lightning_Scar-128.png;rotation=75;" vertex="1" parent="1">
          <mxGeometry x="1104" y="550" width="130" height="130" as="geometry" />
        </mxCell>
        <mxCell id="IW6tXgYRj2aieJ-98kWR-192" value="&lt;span style=&quot;color: rgb(153 , 153 , 153) ; font-family: &amp;#34;helvetica&amp;#34; , &amp;#34;arial&amp;#34; , sans-serif ; font-size: 14px ; background-color: rgb(255 , 255 , 255)&quot;&gt;192.168.0.148&lt;br&gt;&lt;/span&gt;" style="text;html=1;strokeColor=none;fillColor=none;align=center;verticalAlign=middle;whiteSpace=wrap;rounded=0;" vertex="1" parent="1">
          <mxGeometry x="1450" y="673.2" width="60" height="30" as="geometry" />
        </mxCell>
        <mxCell id="IW6tXgYRj2aieJ-98kWR-193" value="&lt;span style=&quot;color: rgb(153 , 153 , 153) ; font-family: &amp;#34;helvetica&amp;#34; , &amp;#34;arial&amp;#34; , sans-serif ; font-size: 14px ; background-color: rgb(255 , 255 , 255)&quot;&gt;192.168.0.149&lt;br&gt;&lt;/span&gt;" style="text;html=1;strokeColor=none;fillColor=none;align=center;verticalAlign=middle;whiteSpace=wrap;rounded=0;" vertex="1" parent="1">
          <mxGeometry x="1490" y="758" width="60" height="30" as="geometry" />
        </mxCell>
        <mxCell id="IW6tXgYRj2aieJ-98kWR-194" value="&lt;span style=&quot;color: rgb(153 , 153 , 153) ; font-family: &amp;#34;helvetica&amp;#34; , &amp;#34;arial&amp;#34; , sans-serif ; font-size: 14px ; background-color: rgb(255 , 255 , 255)&quot;&gt;192.168.0.114&lt;br&gt;&lt;/span&gt;" style="text;html=1;strokeColor=none;fillColor=none;align=center;verticalAlign=middle;whiteSpace=wrap;rounded=0;" vertex="1" parent="1">
          <mxGeometry x="869.9" y="696.5" width="60" height="30" as="geometry" />
        </mxCell>
        <mxCell id="IW6tXgYRj2aieJ-98kWR-195" value="&lt;span style=&quot;color: rgb(153 , 153 , 153) ; font-family: &amp;#34;helvetica&amp;#34; , &amp;#34;arial&amp;#34; , sans-serif ; font-size: 14px ; background-color: rgb(255 , 255 , 255)&quot;&gt;192.168.0.111&lt;br&gt;&lt;/span&gt;" style="text;html=1;strokeColor=none;fillColor=none;align=center;verticalAlign=middle;whiteSpace=wrap;rounded=0;" vertex="1" parent="1">
          <mxGeometry x="990" y="696.5" width="60" height="30" as="geometry" />
        </mxCell>
        <mxCell id="IW6tXgYRj2aieJ-98kWR-196" value="&lt;span style=&quot;color: rgb(153 , 153 , 153) ; font-family: &amp;#34;helvetica&amp;#34; , &amp;#34;arial&amp;#34; , sans-serif ; font-size: 14px ; background-color: rgb(255 , 255 , 255)&quot;&gt;192.168.0.112&lt;br&gt;&lt;/span&gt;" style="text;html=1;strokeColor=none;fillColor=none;align=center;verticalAlign=middle;whiteSpace=wrap;rounded=0;" vertex="1" parent="1">
          <mxGeometry x="869.9" y="808.25" width="60" height="30" as="geometry" />
        </mxCell>
        <mxCell id="IW6tXgYRj2aieJ-98kWR-197" value="&lt;span style=&quot;color: rgb(153 , 153 , 153) ; font-family: &amp;#34;helvetica&amp;#34; , &amp;#34;arial&amp;#34; , sans-serif ; font-size: 14px ; background-color: rgb(255 , 255 , 255)&quot;&gt;192.168.0.113&lt;br&gt;&lt;/span&gt;" style="text;html=1;strokeColor=none;fillColor=none;align=center;verticalAlign=middle;whiteSpace=wrap;rounded=0;" vertex="1" parent="1">
          <mxGeometry x="980" y="808.25" width="60" height="30" as="geometry" />
        </mxCell>
        <mxCell id="IW6tXgYRj2aieJ-98kWR-199" value="" style="verticalLabelPosition=bottom;sketch=0;aspect=fixed;html=1;verticalAlign=top;strokeColor=none;align=center;outlineConnect=0;shape=mxgraph.citrix.cloud;" vertex="1" parent="1">
          <mxGeometry x="1390" y="322" width="95" height="62" as="geometry" />
        </mxCell>
        <mxCell id="IW6tXgYRj2aieJ-98kWR-200" value="&lt;span style=&quot;color: rgb(153 , 153 , 153) ; font-family: &amp;#34;helvetica&amp;#34; , &amp;#34;arial&amp;#34; , sans-serif ; font-size: 14px ; background-color: rgb(255 , 255 , 255)&quot;&gt;Internet&lt;br&gt;&lt;/span&gt;" style="text;html=1;strokeColor=none;fillColor=none;align=center;verticalAlign=middle;whiteSpace=wrap;rounded=0;" vertex="1" parent="1">
          <mxGeometry x="1410" y="337" width="60" height="30" as="geometry" />
        </mxCell>
        <mxCell id="IW6tXgYRj2aieJ-98kWR-202" value="&lt;span style=&quot;color: rgb(153 , 153 , 153) ; font-family: &amp;#34;helvetica&amp;#34; , &amp;#34;arial&amp;#34; , sans-serif ; font-size: 14px ; background-color: rgb(255 , 255 , 255)&quot;&gt;10.8.140.001&lt;/span&gt;" style="text;html=1;strokeColor=none;fillColor=none;align=center;verticalAlign=middle;whiteSpace=wrap;rounded=0;" vertex="1" parent="1">
          <mxGeometry x="1190" y="393" width="60" height="30" as="geometry" />
        </mxCell>
        <mxCell id="IW6tXgYRj2aieJ-98kWR-203" value="" style="verticalLabelPosition=bottom;sketch=0;aspect=fixed;html=1;verticalAlign=top;strokeColor=none;align=center;outlineConnect=0;shape=mxgraph.citrix.laptop_2;" vertex="1" parent="1">
          <mxGeometry x="1538" y="790" width="58.34" height="43.5" as="geometry" />
        </mxCell>
        <mxCell id="IW6tXgYRj2aieJ-98kWR-204" value="&lt;span style=&quot;color: rgb(80 , 86 , 94) ; font-weight: 700 ; letter-spacing: 1.1px ; background-color: rgb(255 , 255 , 255)&quot;&gt;&lt;font style=&quot;font-size: 14px&quot;&gt;5.18.185.134&lt;/font&gt;&lt;/span&gt;" style="text;html=1;strokeColor=none;fillColor=none;align=center;verticalAlign=middle;whiteSpace=wrap;rounded=0;" vertex="1" parent="1">
          <mxGeometry x="1310" y="307" width="60" height="30" as="geometry" />
        </mxCell>
        <mxCell id="IW6tXgYRj2aieJ-98kWR-205" value="&lt;span style=&quot;color: rgb(80 , 86 , 94) ; font-weight: 700 ; letter-spacing: 1.1px ; background-color: rgb(255 , 255 , 255)&quot;&gt;&lt;font style=&quot;font-size: 14px&quot;&gt;Network sorage&lt;/font&gt;&lt;/span&gt;" style="text;html=1;strokeColor=none;fillColor=none;align=center;verticalAlign=middle;whiteSpace=wrap;rounded=0;" vertex="1" parent="1">
          <mxGeometry x="1240" y="833.5" width="60" height="30" as="geometry" />
        </mxCell>
        <mxCell id="IW6tXgYRj2aieJ-98kWR-206" value="&lt;span style=&quot;color: rgb(80 , 86 , 94) ; font-weight: 700 ; letter-spacing: 1.1px ; background-color: rgb(255 , 255 , 255)&quot;&gt;&lt;font style=&quot;font-size: 14px&quot;&gt;laptop&lt;/font&gt;&lt;/span&gt;" style="text;html=1;strokeColor=none;fillColor=none;align=center;verticalAlign=middle;whiteSpace=wrap;rounded=0;" vertex="1" parent="1">
          <mxGeometry x="1397" y="750" width="60" height="30" as="geometry" />
        </mxCell>
        <mxCell id="IW6tXgYRj2aieJ-98kWR-207" value="&lt;span style=&quot;color: rgb(80 , 86 , 94) ; font-weight: 700 ; letter-spacing: 1.1px ; background-color: rgb(255 , 255 , 255)&quot;&gt;&lt;font style=&quot;font-size: 14px&quot;&gt;laptop&lt;/font&gt;&lt;/span&gt;" style="text;html=1;strokeColor=none;fillColor=none;align=center;verticalAlign=middle;whiteSpace=wrap;rounded=0;" vertex="1" parent="1">
          <mxGeometry x="1538" y="840" width="60" height="30" as="geometry" />
        </mxCell>
        <mxCell id="IW6tXgYRj2aieJ-98kWR-208" value="&lt;span style=&quot;color: rgb(80 , 86 , 94) ; font-weight: 700 ; letter-spacing: 1.1px ; background-color: rgb(255 , 255 , 255)&quot;&gt;&lt;font style=&quot;font-size: 14px&quot;&gt;Router&lt;/font&gt;&lt;/span&gt;" style="text;html=1;strokeColor=none;fillColor=none;align=center;verticalAlign=middle;whiteSpace=wrap;rounded=0;" vertex="1" parent="1">
          <mxGeometry x="1168" y="540" width="60" height="30" as="geometry" />
        </mxCell>
        <mxCell id="IW6tXgYRj2aieJ-98kWR-209" value="&lt;span style=&quot;color: rgb(80 , 86 , 94) ; font-weight: 700 ; letter-spacing: 1.1px ; background-color: rgb(255 , 255 , 255)&quot;&gt;&lt;font style=&quot;font-size: 14px&quot;&gt;Switch&lt;/font&gt;&lt;/span&gt;" style="text;html=1;strokeColor=none;fillColor=none;align=center;verticalAlign=middle;whiteSpace=wrap;rounded=0;" vertex="1" parent="1">
          <mxGeometry x="1168" y="338" width="60" height="30" as="geometry" />
        </mxCell>
        <mxCell id="IW6tXgYRj2aieJ-98kWR-210" value="&lt;span style=&quot;color: rgb(80 , 86 , 94) ; font-weight: 700 ; letter-spacing: 1.1px ; background-color: rgb(255 , 255 , 255)&quot;&gt;&lt;font style=&quot;font-size: 14px&quot;&gt;Wi-Fi&lt;/font&gt;&lt;/span&gt;" style="text;html=1;strokeColor=none;fillColor=none;align=center;verticalAlign=middle;whiteSpace=wrap;rounded=0;" vertex="1" parent="1">
          <mxGeometry x="930" y="600" width="60" height="30" as="geometry" />
        </mxCell>
      </root>
    </mxGraphModel>
  </diagram>
</mxfile>
